<?xml version="1.0" standalone="no"?>
<!DOCTYPE svg PUBLIC "-//W3C//DTD SVG 20010904//EN"
 "http://www.w3.org/TR/2001/REC-SVG-20010904/DTD/svg10.dtd">
<svg version="1.0" xmlns="http://www.w3.org/2000/svg"
 width="1024.000000pt" height="1024.000000pt" viewBox="0 0 1024.000000 1024.000000"
 preserveAspectRatio="xMidYMid meet">
<metadata>
Created by potrace 1.11, written by Peter Selinger 2001-2013
</metadata>
<g transform="translate(0.000000,1024.000000) scale(0.100000,-0.100000)"
fill="#000000" stroke="none">
<path d="M8675 9210 c-38 -10 -106 -25 -150 -35 -222 -48 -628 -151 -775 -197
-250 -78 -586 -195 -694 -242 -559 -242 -875 -421 -1225 -693 -209 -163 -498
-450 -642 -638 -157 -204 -339 -523 -389 -680 -7 -22 -16 -44 -20 -50 -4 -5
-15 -36 -24 -68 -19 -65 -14 -66 -101 8 -61 51 -235 169 -290 196 -16 9 -39
20 -50 27 -85 48 -297 130 -440 171 -217 62 -365 91 -690 132 -155 20 -216 22
-685 22 -531 1 -546 0 -967 -48 -136 -16 -240 -38 -282 -59 -43 -23 -127 -120
-135 -157 -14 -73 -5 -133 43 -287 191 -609 445 -1133 735 -1517 33 -44 65
-85 70 -92 6 -6 33 -38 60 -70 129 -151 335 -337 491 -441 175 -116 430 -222
625 -258 131 -25 391 -29 539 -10 289 38 608 164 908 358 54 35 103 67 109 71
8 5 15 -24 23 -96 7 -56 19 -136 27 -177 49 -261 93 -459 140 -649 31 -119 68
-268 84 -331 55 -215 65 -310 65 -595 0 -385 -38 -700 -141 -1165 -25 -113
-51 -235 -59 -272 -19 -84 -19 -189 -1 -231 17 -42 100 -125 134 -134 15 -5
68 -8 119 -8 85 0 94 2 135 30 69 49 110 144 173 405 35 142 88 410 100 505 4
28 13 88 20 135 8 47 16 119 20 160 3 41 10 122 16 180 17 199 22 492 10 660
-18 258 -23 281 -141 735 -52 197 -91 366 -111 475 -5 30 -14 76 -20 102 -15
66 -57 352 -53 357 2 2 16 -2 31 -9 31 -15 44 -20 183 -73 123 -46 279 -97
385 -125 22 -6 67 -18 100 -26 110 -30 239 -57 340 -72 136 -21 637 -30 774
-15 304 36 658 181 926 380 112 84 310 277 402 393 130 164 266 395 353 603
29 66 60 138 69 160 10 22 22 51 25 65 4 14 16 48 26 75 64 174 166 590 200
820 41 279 72 549 91 798 7 93 9 320 6 634 -6 643 -20 740 -114 823 -25 22
-62 44 -82 50 -54 15 -197 10 -276 -10z m-56 -900 c1 -329 -28 -878 -54 -1010
-3 -14 -7 -50 -10 -80 -16 -176 -101 -601 -155 -775 -100 -320 -198 -551 -319
-750 -97 -159 -167 -251 -276 -361 -197 -198 -390 -307 -671 -381 -107 -27
-114 -28 -379 -28 -232 1 -288 4 -395 23 -215 38 -418 93 -613 166 -113 42
-416 165 -439 177 -16 9 -14 16 21 72 172 279 333 473 543 652 149 127 221
167 588 325 290 125 593 292 915 505 228 151 427 297 532 391 61 55 74 72 87
118 20 68 20 94 1 161 -19 63 -79 136 -139 167 -56 30 -155 30 -212 1 -35 -19
-203 -138 -314 -223 -192 -147 -632 -417 -850 -521 -36 -17 -85 -41 -110 -54
-25 -12 -106 -48 -180 -80 -305 -129 -405 -181 -545 -285 -129 -95 -265 -220
-375 -343 -111 -124 -115 -122 -75 47 123 518 407 954 880 1353 221 186 540
381 900 548 100 47 318 140 365 155 14 5 63 23 110 40 143 53 368 127 455 150
17 5 77 22 135 38 101 29 313 82 470 117 41 9 80 18 85 19 17 4 23 -86 24
-334z m-5644 -1674 c172 -13 454 -52 545 -76 19 -5 58 -14 85 -20 296 -70 589
-214 767 -378 60 -56 173 -216 202 -286 16 -40 33 -146 23 -146 -3 0 -27 9
-54 21 -186 81 -554 187 -853 244 -41 8 -97 19 -125 25 -178 35 -554 65 -626
49 -60 -14 -104 -43 -139 -93 -74 -109 -62 -265 27 -347 59 -55 94 -64 413
-104 183 -22 441 -65 520 -85 19 -5 91 -23 160 -40 208 -52 361 -108 536 -197
l52 -26 -61 -45 c-68 -50 -268 -181 -309 -203 -297 -156 -456 -201 -718 -201
-127 0 -169 3 -234 21 -171 46 -336 137 -507 280 -252 210 -532 604 -729 1026
-26 56 -54 116 -64 135 -21 45 -164 404 -161 407 5 8 188 27 360 38 276 17
663 17 890 1z"/>
</g>
</svg>
