<svg xmlns="http://www.w3.org/2000/svg" xmlns:xlink="http://www.w3.org/1999/xlink">
  <symbol id="icon-plants" viewBox="0 0 28 28" width="28" height="28" xmlns="http://www.w3.org/2000/svg">
    <path d="M 23.722656 2.816406 C 23.617188 2.84375 23.429688 2.882812 23.3125 2.910156 C 22.703125 3.042969 21.59375 3.324219 21.191406 3.449219 C 20.507812 3.664062 19.589844 3.984375 19.292969 4.113281 C 17.765625 4.773438 16.902344 5.261719 15.945312 6.007812 C 15.371094 6.453125 14.582031 7.238281 14.1875 7.75 C 13.757812 8.308594 13.261719 9.183594 13.125 9.609375 C 13.105469 9.671875 13.082031 9.730469 13.070312 9.75 C 13.058594 9.761719 13.03125 9.847656 13.003906 9.933594 C 12.953125 10.113281 12.964844 10.113281 12.730469 9.914062 C 12.5625 9.773438 12.085938 9.449219 11.9375 9.375 C 11.890625 9.351562 11.828125 9.320312 11.800781 9.300781 C 11.566406 9.171875 10.988281 8.945312 10.597656 8.835938 C 10.003906 8.664062 9.597656 8.585938 8.710938 8.472656 C 8.285156 8.417969 8.117188 8.414062 6.835938 8.414062 C 5.382812 8.410156 5.34375 8.414062 4.191406 8.542969 C 3.820312 8.589844 3.535156 8.648438 3.421875 8.707031 C 3.304688 8.769531 3.074219 9.035156 3.050781 9.136719 C 3.011719 9.335938 3.039062 9.5 3.167969 9.921875 C 3.691406 11.585938 4.386719 13.019531 5.179688 14.066406 C 5.269531 14.1875 5.355469 14.300781 5.371094 14.320312 C 5.386719 14.335938 5.460938 14.421875 5.535156 14.511719 C 5.886719 14.925781 6.449219 15.433594 6.878906 15.71875 C 7.355469 16.035156 8.054688 16.324219 8.585938 16.421875 C 8.945312 16.492188 9.65625 16.5 10.058594 16.449219 C 10.851562 16.347656 11.722656 16 12.542969 15.472656 C 12.691406 15.375 12.824219 15.289062 12.839844 15.277344 C 12.863281 15.261719 12.882812 15.34375 12.902344 15.539062 C 12.921875 15.691406 12.957031 15.910156 12.976562 16.023438 C 13.113281 16.738281 13.230469 17.277344 13.359375 17.796875 C 13.445312 18.125 13.546875 18.53125 13.589844 18.703125 C 13.742188 19.289062 13.769531 19.550781 13.769531 20.328125 C 13.769531 21.382812 13.664062 22.242188 13.382812 23.515625 C 13.3125 23.824219 13.242188 24.15625 13.222656 24.257812 C 13.167969 24.488281 13.167969 24.777344 13.21875 24.890625 C 13.265625 25.007812 13.492188 25.234375 13.585938 25.257812 C 13.625 25.269531 13.769531 25.28125 13.910156 25.28125 C 14.140625 25.28125 14.167969 25.273438 14.277344 25.195312 C 14.46875 25.0625 14.578125 24.804688 14.753906 24.089844 C 14.847656 23.703125 14.992188 22.96875 15.027344 22.710938 C 15.035156 22.632812 15.0625 22.46875 15.082031 22.339844 C 15.101562 22.210938 15.125 22.015625 15.136719 21.902344 C 15.144531 21.789062 15.164062 21.570312 15.179688 21.410156 C 15.226562 20.867188 15.238281 20.066406 15.207031 19.605469 C 15.15625 18.898438 15.144531 18.835938 14.820312 17.59375 C 14.679688 17.058594 14.570312 16.59375 14.515625 16.296875 C 14.503906 16.214844 14.480469 16.089844 14.460938 16.019531 C 14.421875 15.835938 14.304688 15.054688 14.316406 15.042969 C 14.324219 15.035156 14.359375 15.046875 14.402344 15.066406 C 14.488281 15.105469 14.523438 15.121094 14.902344 15.265625 C 15.238281 15.390625 15.664062 15.53125 15.957031 15.609375 C 16.015625 15.625 16.136719 15.65625 16.226562 15.679688 C 16.53125 15.761719 16.882812 15.835938 17.15625 15.875 C 17.53125 15.933594 18.898438 15.957031 19.273438 15.917969 C 20.105469 15.816406 21.074219 15.421875 21.808594 14.878906 C 22.113281 14.648438 22.65625 14.121094 22.90625 13.804688 C 23.261719 13.355469 23.632812 12.722656 23.871094 12.152344 C 23.949219 11.972656 24.035156 11.777344 24.058594 11.71875 C 24.085938 11.65625 24.121094 11.578125 24.128906 11.539062 C 24.140625 11.5 24.171875 11.40625 24.199219 11.335938 C 24.375 10.859375 24.652344 9.71875 24.746094 9.089844 C 24.859375 8.328125 24.941406 7.589844 24.996094 6.910156 C 25.015625 6.65625 25.019531 6.035156 25.011719 5.175781 C 24.996094 3.417969 24.957031 3.152344 24.699219 2.925781 C 24.632812 2.867188 24.53125 2.804688 24.476562 2.789062 C 24.328125 2.746094 23.9375 2.761719 23.722656 2.816406 Z M 23.566406 5.277344 C 23.570312 6.175781 23.492188 7.679688 23.421875 8.039062 C 23.410156 8.078125 23.402344 8.175781 23.394531 8.257812 C 23.347656 8.738281 23.117188 9.902344 22.96875 10.375 C 22.695312 11.25 22.425781 11.882812 22.097656 12.425781 C 21.832031 12.863281 21.640625 13.113281 21.34375 13.414062 C 20.804688 13.957031 20.277344 14.253906 19.507812 14.457031 C 19.214844 14.53125 19.195312 14.53125 18.46875 14.53125 C 17.835938 14.53125 17.683594 14.523438 17.390625 14.46875 C 16.804688 14.367188 16.246094 14.214844 15.714844 14.015625 C 15.40625 13.902344 14.578125 13.566406 14.515625 13.53125 C 14.46875 13.507812 14.476562 13.488281 14.570312 13.335938 C 15.042969 12.574219 15.480469 12.042969 16.054688 11.554688 C 16.464844 11.207031 16.660156 11.097656 17.664062 10.664062 C 18.457031 10.320312 19.285156 9.867188 20.167969 9.28125 C 20.789062 8.871094 21.332031 8.472656 21.621094 8.214844 C 21.789062 8.0625 21.824219 8.015625 21.859375 7.890625 C 21.914062 7.707031 21.914062 7.632812 21.863281 7.449219 C 21.808594 7.277344 21.644531 7.078125 21.480469 6.996094 C 21.328125 6.914062 21.058594 6.914062 20.902344 6.992188 C 20.804688 7.042969 20.347656 7.367188 20.042969 7.601562 C 19.519531 8.003906 18.316406 8.742188 17.71875 9.027344 C 17.621094 9.074219 17.484375 9.136719 17.417969 9.171875 C 17.351562 9.207031 17.128906 9.304688 16.925781 9.390625 C 16.09375 9.746094 15.820312 9.886719 15.4375 10.171875 C 15.082031 10.429688 14.710938 10.773438 14.410156 11.109375 C 14.105469 11.449219 14.097656 11.445312 14.207031 10.980469 C 14.542969 9.566406 15.316406 8.371094 16.609375 7.28125 C 17.214844 6.773438 18.085938 6.238281 19.074219 5.78125 C 19.347656 5.65625 19.941406 5.398438 20.070312 5.359375 C 20.109375 5.34375 20.242188 5.296875 20.371094 5.25 C 20.761719 5.105469 21.378906 4.902344 21.617188 4.839844 C 21.660156 4.824219 21.824219 4.78125 21.984375 4.734375 C 22.261719 4.65625 22.839844 4.511719 23.269531 4.414062 C 23.382812 4.390625 23.488281 4.367188 23.503906 4.363281 C 23.546875 4.351562 23.566406 4.597656 23.566406 5.277344 Z M 8.132812 9.855469 C 8.605469 9.890625 9.375 9.996094 9.625 10.0625 C 9.675781 10.078125 9.785156 10.101562 9.859375 10.117188 C 10.667969 10.308594 11.46875 10.703125 11.953125 11.152344 C 12.117188 11.304688 12.429688 11.742188 12.507812 11.933594 C 12.550781 12.042969 12.597656 12.332031 12.570312 12.332031 C 12.5625 12.332031 12.496094 12.308594 12.421875 12.273438 C 11.914062 12.054688 10.90625 11.761719 10.089844 11.609375 C 9.976562 11.585938 9.824219 11.554688 9.75 11.539062 C 9.261719 11.445312 8.234375 11.359375 8.035156 11.40625 C 7.871094 11.445312 7.753906 11.523438 7.65625 11.660156 C 7.453125 11.957031 7.488281 12.382812 7.730469 12.609375 C 7.890625 12.757812 7.988281 12.78125 8.859375 12.890625 C 9.359375 12.953125 10.066406 13.070312 10.28125 13.125 C 10.332031 13.136719 10.53125 13.1875 10.71875 13.234375 C 11.289062 13.375 11.707031 13.53125 12.183594 13.773438 L 12.328125 13.84375 L 12.160156 13.96875 C 11.972656 14.105469 11.425781 14.460938 11.316406 14.523438 C 10.503906 14.949219 10.066406 15.070312 9.351562 15.070312 C 9.003906 15.070312 8.890625 15.0625 8.710938 15.015625 C 8.242188 14.886719 7.792969 14.640625 7.324219 14.25 C 6.636719 13.675781 5.871094 12.597656 5.332031 11.445312 C 5.261719 11.289062 5.183594 11.125 5.15625 11.074219 C 5.101562 10.953125 4.707031 9.96875 4.71875 9.960938 C 4.730469 9.9375 5.230469 9.886719 5.703125 9.859375 C 6.457031 9.8125 7.515625 9.8125 8.132812 9.855469 Z M 8.132812 9.855469 "/>
  </symbol>
</svg>
